<svg width="74" height="64" viewBox="0 0 74 64" fill="none" xmlns="http://www.w3.org/2000/svg">
<path d="M38.8745 15.6584L38.8206 15.6424C38.3642 15.5062 38.1041 15.0264 38.2403 14.5698C39.6761 9.74485 44.1478 6.20204 49.4689 6.20204C49.9452 6.20204 50.3314 6.5883 50.3314 7.06454C50.3314 7.54077 49.9452 7.92704 49.4689 7.92704C45.0812 7.92704 41.1435 10.8609 39.8933 15.0612L38.8745 15.6584ZM38.8745 15.6584L38.8759 15.6568M38.8745 15.6584L38.8759 15.6568M38.8759 15.6568C39.3169 15.7577 39.7637 15.4989 39.8933 15.0614L38.8759 15.6568Z" fill="#EC1414" stroke="#F9FFF9" stroke-width="0.17478"/>
<path d="M60.3196 45.0448H55.669C55.2411 45.0448 54.8939 44.6976 54.8939 44.2697C54.8939 43.8417 55.2411 43.4945 55.669 43.4945H60.3196C66.7302 43.4945 71.9461 38.2786 71.9461 31.868C71.9461 25.4574 66.7302 20.2415 60.3196 20.2415H60.2077C59.983 20.2415 59.7693 20.1441 59.622 19.9741C59.4747 19.8041 59.4083 19.5788 59.4404 19.3562C59.5096 18.8735 59.5445 18.3885 59.5445 17.9162C59.5445 12.3604 55.0239 7.83985 49.4681 7.83985C47.3067 7.83985 45.2454 8.51529 43.507 9.79364C43.1249 10.0743 42.5824 9.94977 42.3615 9.52955C37.4379 0.15418 24.5782 -1.10484 17.9111 7.05092C15.1025 10.4868 13.999 14.9564 14.8832 19.3125C14.9807 19.7937 14.6125 20.2421 14.1236 20.2421H13.813C7.40243 20.2421 2.18651 25.458 2.18651 31.8686C2.18651 38.2792 7.40243 43.4951 13.813 43.4951H18.4636C18.8915 43.4951 19.2387 43.8423 19.2387 44.2703C19.2387 44.6982 18.8916 45.0454 18.4636 45.0454H13.813C6.5475 45.0454 0.63623 39.1341 0.63623 31.8686C0.63623 24.8069 6.22024 19.0246 13.2046 18.7057C12.5485 14.1862 13.8031 9.62751 16.7108 6.06987C23.8489 -2.66274 37.5285 -1.68393 43.3112 8.05357C45.156 6.897 47.267 6.29026 49.4679 6.29026C56.199 6.29026 61.5329 12.0194 61.0662 18.7129C67.9861 19.101 73.496 24.8528 73.496 31.868C73.496 39.1341 67.5848 45.0448 60.3192 45.0448L60.3196 45.0448Z" fill="#EC1414"/>
<path d="M17.4971 43.832C17.4971 54.5652 26.2291 63.2971 36.9622 63.2971C47.6955 63.2971 56.4274 54.5651 56.4274 43.832C56.4274 33.0987 47.6955 24.3668 36.9622 24.3668C26.229 24.3668 17.4971 33.0989 17.4971 43.832ZM19.2224 43.832C19.2224 34.0505 27.1806 26.0922 36.9622 26.0922C46.7437 26.0922 54.7021 34.0503 54.7021 43.832C54.7021 53.6135 46.7437 61.5718 36.9622 61.5718C27.1807 61.5718 19.2224 53.6136 19.2224 43.832Z" fill="#EC1414" stroke="#F9FFF9" stroke-width="0.17478"/>
<path d="M36.6621 51.6328C36.6621 51.9944 36.9554 52.2876 37.317 52.2876C37.6785 52.2876 37.9718 51.9948 37.9718 51.6328V36.8786C37.9718 36.517 37.6786 36.2238 37.317 36.2238C36.9554 36.2238 36.6621 36.517 36.6621 36.8786V51.6328Z" fill="#EC1414" stroke="#B2CFF1" stroke-width="0.17478"/>
<path d="M37.3167 37.8059L41.3933 41.8825C41.521 42.0102 41.689 42.0743 41.8564 42.0743L37.3167 37.8059ZM37.3167 37.8059L33.2402 41.8825C32.9847 42.1384 32.5698 42.1384 32.314 41.8825C32.0581 41.6267 32.0581 41.2122 32.314 40.9564L36.8536 36.4168C37.109 36.1609 37.524 36.1609 37.7798 36.4167L42.3194 40.9564C42.5752 41.2122 42.5753 41.6266 42.3195 41.8824C42.1917 42.0107 42.0236 42.0743 41.8564 42.0743L37.3167 37.8059Z" fill="#EC1414" stroke="#B2CFF1" stroke-width="0.17478"/>
</svg>
