<svg width="88" height="88" viewBox="0 0 88 88" fill="none" xmlns="http://www.w3.org/2000/svg">
<path d="M33.5 12H34.3535C34.3789 12.0323 34.4099 12.0598 34.445 12.0813L53.5166 19.6815C53.6776 19.7486 53.8503 19.7831 54.0246 19.7831C54.199 19.7831 54.3717 19.7486 54.5327 19.6815C59.0847 17.8424 63.6773 16.0338 68.1887 14.2049C70.0379 13.4936 71.8363 12.7417 73.6348 12H74.6509C75.1107 12.2107 75.491 12.563 75.736 13.0055C75.981 13.448 76.0779 13.9574 76.0124 14.4589C76.0124 31.5424 76.0124 48.6259 76.0124 65.7095C76.0879 66.2106 75.9734 66.7218 75.6914 67.1428C75.4095 67.5639 74.9804 67.8644 74.4883 67.9854C68.06 70.5595 61.6248 73.1335 55.183 75.7076C54.8239 75.8636 54.4365 75.9442 54.045 75.9442C53.6534 75.9442 53.2661 75.8636 52.907 75.7076C46.7699 73.2284 40.6295 70.7729 34.4856 68.3411C34.1566 68.2265 33.7985 68.2265 33.4696 68.3411C27.3325 70.7458 21.192 73.1877 15.0482 75.6669C13.4631 76.2969 12.8129 76.0734 12 74.6509V21.5003C12.1349 21.1408 12.3508 20.8172 12.631 20.5546C12.9112 20.2921 13.2481 20.0976 13.6156 19.9863C17.5782 18.4216 21.5341 16.8433 25.4832 15.2514L33.5 12ZM38.1232 33.6931C38.1232 36.5279 38.1232 39.3628 38.1232 42.1874C38.0875 42.6287 38.2014 43.0691 38.4465 43.4378C38.6917 43.8064 39.0538 44.0818 39.4745 44.2196L47.1255 47.2678C47.43 47.4363 47.7752 47.5169 48.1227 47.5008C48.4703 47.4847 48.8066 47.3725 49.0941 47.1766C49.3817 46.9807 49.6092 46.7088 49.7514 46.3912C49.8935 46.0737 49.9448 45.7229 49.8994 45.3779C49.8994 39.7285 49.8994 34.0894 49.8994 28.44C49.9455 27.9942 49.8334 27.5463 49.5826 27.1748C49.3318 26.8033 48.9584 26.5319 48.5277 26.4079L40.9377 23.3597C40.631 23.1809 40.2799 23.0926 39.9251 23.1051C39.5703 23.1176 39.2263 23.2303 38.9329 23.4301C38.6395 23.63 38.4087 23.9088 38.2672 24.2344C38.1257 24.56 38.0793 24.919 38.1333 25.2699C38.113 28.0742 38.1232 30.8786 38.1232 33.6931ZM31.8235 54.6749C31.8235 53.3032 31.8235 51.9214 31.8235 50.5497C31.8722 50.1981 31.8214 49.8399 31.6768 49.5156C31.5323 49.1914 31.2998 48.9142 31.0058 48.7153C30.7117 48.5165 30.3679 48.404 30.0132 48.3906C29.6584 48.3772 29.3071 48.4634 28.9988 48.6395L21.4698 51.6267C21.0016 51.7513 20.5957 52.044 20.3296 52.4488C20.0634 52.8536 19.9557 53.3422 20.027 53.8214C20.027 56.5343 20.027 59.2371 20.027 61.95C19.9907 62.2973 20.0504 62.6479 20.1995 62.9637C20.3486 63.2794 20.5814 63.5483 20.8726 63.741C21.1638 63.9338 21.5022 64.043 21.8511 64.0568C22.2 64.0707 22.5461 63.9886 22.8516 63.8196L30.2893 60.873C30.7678 60.7462 31.1835 60.4492 31.4585 60.0376C31.7336 59.626 31.8489 59.1282 31.7829 58.6376L31.8235 54.6749ZM58.2413 30.8583C58.4218 30.8342 58.5991 30.7899 58.7697 30.7262C61.4521 29.6593 64.1345 28.6026 66.8068 27.5052C67.0396 27.4164 67.2517 27.281 67.4303 27.1073C67.6088 26.9335 67.75 26.7252 67.8451 26.4949C67.9403 26.2647 67.9874 26.0174 67.9836 25.7683C67.9797 25.5192 67.925 25.2735 67.8229 25.0463C67.7294 24.8184 67.5917 24.6112 67.4178 24.4366C67.244 24.2621 67.0373 24.1236 66.8098 24.0292C66.5822 23.9348 66.3382 23.8863 66.0918 23.8864C65.8455 23.8866 65.6016 23.9355 65.3741 24.0303C64.9068 24.203 64.4495 24.3961 63.9821 24.5789C61.8077 25.4528 59.6232 26.3164 57.4488 27.2004C57.0111 27.3537 56.6459 27.6643 56.4244 28.0718C56.2028 28.4792 56.1406 28.9545 56.2498 29.4053C56.3588 29.8381 56.613 30.2205 56.9698 30.4887C57.3267 30.7568 57.7648 30.8944 58.2109 30.8786L58.2413 30.8583ZM40.2264 49.2491C39.7695 49.2138 39.3147 49.3413 38.9428 49.6091C38.5709 49.8769 38.3057 50.2677 38.1943 50.7123C38.1032 51.1554 38.1742 51.6164 38.3942 52.0117C38.6142 52.407 38.9687 52.7102 39.3932 52.8663C42.035 53.9366 44.6802 54.9899 47.3287 56.0263C47.6162 56.1392 47.9248 56.1878 48.233 56.1686C48.6277 56.1219 48.9977 55.9527 49.2912 55.6848C49.5846 55.4169 49.7867 55.0637 49.8689 54.6749C49.9478 54.2394 49.8695 53.79 49.6481 53.4067C49.4267 53.0234 49.0765 52.7311 48.6598 52.5818L41.2526 49.5946C40.8462 49.432 40.45 49.3202 40.2264 49.2491ZM67.9753 34.5263C67.9824 34.2247 67.9155 33.9259 67.7807 33.656C67.6458 33.3862 67.4469 33.1534 67.2014 32.9781C66.9559 32.8027 66.6712 32.6901 66.3722 32.65C66.0732 32.6099 65.7689 32.6436 65.4859 32.7481C62.7527 33.7642 60.0398 34.8921 57.3574 35.9996C56.9828 36.2271 56.7002 36.5789 56.5586 36.9936C56.4171 37.4083 56.4258 37.8596 56.5831 38.2686C56.7404 38.6775 57.0363 39.0183 57.4193 39.2313C57.8022 39.4443 58.2478 39.516 58.6782 39.4339C61.3878 38.3636 64.0973 37.2764 66.8068 36.1723C67.1424 36.044 67.4324 35.8192 67.6404 35.5263C67.8483 35.2333 67.9649 34.8854 67.9753 34.5263ZM38.1232 59.9991C38.1451 60.3401 38.2665 60.6672 38.4724 60.9398C38.6783 61.2125 38.9596 61.4189 39.2815 61.5334C41.9842 62.6308 44.6768 63.7078 47.41 64.7645C47.8615 64.924 48.3571 64.9031 48.7936 64.7063C49.23 64.5094 49.5738 64.1518 49.7532 63.7079C49.9326 63.264 49.9338 62.768 49.7566 62.3232C49.5795 61.8784 49.2375 61.519 48.802 61.32C46.0993 60.2024 43.3864 59.105 40.6735 58.0584C40.3738 57.9421 40.0492 57.9046 39.7309 57.9495C39.4125 57.9945 39.111 58.1203 38.8551 58.315C38.5993 58.5097 38.3976 58.7667 38.2695 59.0616C38.1413 59.3564 38.0909 59.6793 38.1232 59.9991ZM67.9753 60.6291C67.9813 60.3271 67.9133 60.0282 67.7771 59.7586C67.641 59.489 67.4409 59.2568 67.1943 59.0824C66.9477 58.908 66.6621 58.7966 66.3625 58.758C66.063 58.7195 65.7585 58.7549 65.4758 58.8611C62.7425 59.8772 60.0296 61.0152 57.3472 62.1227C56.8891 62.3073 56.5231 62.6663 56.3297 63.1208C56.1362 63.5753 56.1313 64.0879 56.3159 64.5461C56.5005 65.0042 56.8595 65.3702 57.314 65.5636C57.7684 65.757 58.2811 65.762 58.7392 65.5774C61.4623 64.5613 64.1853 63.4233 66.8678 62.3158C67.1999 62.1776 67.4829 61.9431 67.6804 61.6424C67.8778 61.3417 67.9805 60.9888 67.9753 60.6291ZM58.1905 57.0017C58.3765 56.9716 58.5599 56.9275 58.7392 56.8696C61.4216 55.8536 64.1041 54.7359 66.7763 53.6385C67.01 53.5572 67.2249 53.4295 67.4081 53.2631C67.5913 53.0967 67.7391 52.895 67.8425 52.6702C67.9459 52.4453 68.0029 52.2019 68.01 51.9545C68.0171 51.7071 67.9742 51.4609 67.8838 51.2305C67.7883 51.0006 67.6482 50.7918 67.4717 50.6162C67.2952 50.4406 67.0858 50.3016 66.8554 50.2072C66.625 50.1127 66.3783 50.0648 66.1293 50.066C65.8803 50.0673 65.6341 50.1177 65.4046 50.2144C64.9169 50.3871 64.4495 50.6005 63.9618 50.7935C61.7874 51.6674 59.6029 52.531 57.4285 53.415C57.0057 53.5756 56.6565 53.8856 56.4468 54.2862C56.2371 54.6869 56.1815 55.1505 56.2905 55.5894C56.4115 55.9988 56.6622 56.3579 57.0049 56.6126C57.3475 56.8673 57.7636 57.0038 58.1905 57.0017ZM31.7727 32.9006C31.7778 32.5994 31.709 32.3017 31.5721 32.0334C31.4352 31.7651 31.2345 31.5346 30.9877 31.362C30.7409 31.1894 30.4555 31.0801 30.1565 31.0437C29.8576 31.0072 29.5542 31.0447 29.2732 31.1529C26.5603 32.169 23.8677 33.2867 21.1446 34.384C20.718 34.5894 20.3852 34.949 20.2134 35.3902C20.0416 35.8314 20.0436 36.3213 20.219 36.7611C20.3944 37.2009 20.7302 37.5578 21.1584 37.7597C21.5867 37.9615 22.0756 37.9934 22.5265 37.8488C25.2394 36.8327 27.932 35.7151 30.655 34.6076C31.0015 34.4797 31.2988 34.246 31.5049 33.9396C31.711 33.6332 31.8154 33.2696 31.8032 32.9006H31.7727ZM22.0591 29.2732C22.2722 29.232 22.4826 29.1777 22.6891 29.1106C25.3105 28.0945 27.9421 27.0175 30.5534 25.9608C30.7816 25.8694 30.9895 25.734 31.1654 25.5622C31.3412 25.3904 31.4815 25.1857 31.5782 24.9598C31.6749 24.7338 31.7261 24.491 31.729 24.2452C31.7319 23.9994 31.6863 23.7555 31.5949 23.5273C31.5035 23.2991 31.3681 23.0912 31.1963 22.9154C31.0245 22.7396 30.8198 22.5993 30.5939 22.5026C30.3679 22.4059 30.1251 22.3546 29.8793 22.3517C29.6335 22.3489 29.3896 22.3944 29.1614 22.4858L26.6111 23.5019C24.8228 24.2132 23.0244 24.9244 21.2361 25.656C20.8316 25.8208 20.4986 26.1234 20.2959 26.5102C20.0932 26.897 20.0339 27.3431 20.1286 27.7694C20.2288 28.2036 20.4754 28.5901 20.8269 28.8639C21.1785 29.1378 21.6136 29.2823 22.0591 29.2732ZM29.7812 39.7387C29.5492 39.7789 29.3214 39.8401 29.1005 39.9216C26.5061 40.9512 23.9422 41.9774 21.4088 43.0003C21.155 43.0725 20.9193 43.1973 20.7169 43.3666C20.5145 43.5359 20.35 43.7459 20.2342 43.983C20.1183 44.22 20.0537 44.4788 20.0444 44.7425C20.0352 45.0062 20.0816 45.2689 20.1805 45.5135C20.2795 45.7581 20.4289 45.9791 20.6189 46.1621C20.809 46.3452 21.0354 46.4862 21.2835 46.5759C21.5317 46.6657 21.7959 46.7022 22.0591 46.6831C22.3222 46.664 22.5784 46.5897 22.811 46.4651C24.4164 45.8351 26.0116 45.1848 27.617 44.5447C28.6331 44.1383 29.6491 43.7522 30.6652 43.3153C31.0743 43.1459 31.409 42.8353 31.6085 42.44C31.808 42.0447 31.8591 41.5909 31.7524 41.1612C31.6401 40.7321 31.3819 40.3555 31.0223 40.096C30.6626 39.8364 30.2238 39.7101 29.7812 39.7387ZM58.2312 48.2839C58.4286 48.2566 58.6227 48.2089 58.8103 48.1416C61.4724 47.1255 64.1447 46.0383 66.7966 44.9613C67.0261 44.8659 67.2346 44.7262 67.4101 44.5503C67.5857 44.3743 67.7248 44.1655 67.8196 43.9357C67.9145 43.706 67.9631 43.4598 67.9628 43.2113C67.9625 42.9627 67.9132 42.7167 67.8178 42.4872C67.7224 42.2577 67.5827 42.0492 67.4067 41.8737C67.2308 41.6982 67.022 41.559 66.7922 41.4642C66.5625 41.3694 66.3163 41.3207 66.0678 41.321C65.8192 41.3214 65.5732 41.3706 65.3437 41.466C64.6019 41.7404 63.8704 42.0452 63.1388 42.3398C61.2286 43.1019 59.3184 43.8538 57.4082 44.6362C56.9838 44.7928 56.6316 45.0996 56.4181 45.4984C56.2047 45.8972 56.1448 46.3604 56.2498 46.8004C56.3544 47.2326 56.6042 47.6157 56.9575 47.8858C57.3108 48.1558 57.7461 48.2963 58.1905 48.2839H58.2312Z" fill="white"/>
<path d="M46.1399 42.8276C44.7276 42.2687 43.3965 41.7505 42.0756 41.2019C42.0139 41.1556 41.9635 41.0958 41.9283 41.0272C41.8931 40.9585 41.874 40.8827 41.8724 40.8056C41.8724 36.4974 41.8724 32.1893 41.8724 27.7694L44.0468 28.6331C44.7377 28.9176 45.6623 29.0497 46.0789 29.5679C46.4955 30.086 46.1907 30.97 46.1907 31.6914V42.8682L46.1399 42.8276Z" fill="white"/>
<path d="M28.0741 53.0696C28.0741 54.6038 28.0741 56.0162 28.0741 57.4285C28.0702 57.506 28.0479 57.5815 28.009 57.6486C27.9702 57.7158 27.9158 57.7727 27.8505 57.8146C26.5398 58.3633 25.2088 58.8307 23.7863 59.4505C23.7863 57.8959 23.7863 56.4023 23.7863 55.0001C23.7863 54.8985 23.9285 54.7461 24.0301 54.6953L28.0741 53.0696Z" fill="white"/>
</svg>
