<svg width="88" height="88" viewBox="0 0 88 88" fill="none" xmlns="http://www.w3.org/2000/svg">
<path d="M21.5056 8H52.582V23.7438C52.582 25.4804 53.3589 26.2802 55.0955 26.2802H70.8622V73.2261C70.9217 74.1321 70.7863 75.0404 70.4651 75.8897C70.1439 76.739 69.6443 77.5096 69.0001 78.1495C68.3559 78.7894 67.582 79.2837 66.7305 79.5992C65.8791 79.9147 64.9699 80.044 64.0642 79.9783H22.8766C21.9571 80.0545 21.0321 79.9294 20.1658 79.6119C19.2995 79.2943 18.5129 78.7918 17.8604 78.1394C17.208 77.487 16.7056 76.7003 16.388 75.8341C16.0704 74.9678 15.9454 74.0427 16.0216 73.1232V29.9477C16.0216 24.7683 16.0216 19.5927 16.0216 14.4209C15.9767 13.3781 16.2064 12.3417 16.6876 11.4155C17.1687 10.4892 17.8846 9.70544 18.7636 9.14251C19.6388 8.67453 20.5571 8.29193 21.5056 8ZM43.3619 69.9927H61.2765C63.0245 69.9927 63.8243 69.2158 63.8243 67.4792V34.5977C63.8243 32.8154 63.0474 32.0385 61.2537 32.0385H25.6301C23.8363 32.0385 23.048 32.804 23.048 34.5863V67.4678C23.048 69.2044 23.8478 69.9927 25.5844 69.9927H43.3619Z" fill="white"/>
<path d="M56.8208 22.0073V9.51959L69.3085 22.0073H56.8208Z" fill="white"/>
<path d="M42.6991 36.3V40.4359H27.3209V36.3H42.6991Z" fill="white"/>
<path d="M27.2982 48.8563V44.7318H42.6764V48.8563H27.2982Z" fill="white"/>
<path d="M27.2982 57.2995V53.1636H42.6764V57.2995H27.2982Z" fill="white"/>
<path d="M27.2982 65.7311V61.5952H42.6764V65.7311H27.2982Z" fill="white"/>
<path d="M51.1195 40.4474H46.9951V36.3115H51.1195V40.4474Z" fill="white"/>
<path d="M59.5513 40.4474H55.4269V36.3115H59.5513V40.4474Z" fill="white"/>
<path d="M51.1311 44.7432V48.8791H47.0066V44.7432H51.1311Z" fill="white"/>
<path d="M55.4382 44.7204H59.5627V48.8563H55.4382V44.7204Z" fill="white"/>
<path d="M51.1424 53.1749V57.2994H46.9837V53.1749H51.1424Z" fill="white"/>
<path d="M59.5741 53.1749V57.3108H55.4382V53.1749H59.5741Z" fill="white"/>
<path d="M51.1311 65.7425H47.0066V61.6066H51.1311V65.7425Z" fill="white"/>
<path d="M59.5856 61.6066V65.7197H55.4382V61.6066H59.5856Z" fill="white"/>
</svg>
