<svg width="44" height="44" viewBox="0 0 44 44" fill="none" xmlns="http://www.w3.org/2000/svg">
<path d="M10.7529 4H26.291V11.8719C26.291 12.7402 26.6795 13.1401 27.5478 13.1401H35.4312V36.613C35.4609 37.0661 35.3932 37.5202 35.2326 37.9449C35.072 38.3695 34.8222 38.7548 34.5001 39.0747C34.178 39.3947 33.791 39.6419 33.3653 39.7996C32.9396 39.9573 32.485 40.022 32.0322 39.9892H11.4384C10.9786 40.0272 10.5161 39.9647 10.083 39.8059C9.64984 39.6471 9.25649 39.3959 8.93028 39.0697C8.60408 38.7435 8.35285 38.3502 8.19407 37.917C8.03528 37.4839 7.97276 37.0214 8.01084 36.5616V14.9738C8.01084 12.3841 8.01084 9.79635 8.01084 7.21046C7.98843 6.68904 8.10325 6.17087 8.34384 5.70774C8.58443 5.2446 8.94236 4.85272 9.38186 4.57126C9.81946 4.33727 10.2786 4.14597 10.7529 4ZM21.681 34.9964H30.6383C31.5123 34.9964 31.9122 34.6079 31.9122 33.7396V17.2989C31.9122 16.4077 31.5238 16.0192 30.6269 16.0192H12.8151C11.9182 16.0192 11.5241 16.402 11.5241 17.2931V33.7339C11.5241 34.6022 11.9239 34.9964 12.7923 34.9964H21.681Z" fill="#565C54"/>
<path d="M28.4105 11.0036V4.75977L34.6544 11.0036H28.4105Z" fill="#565C54"/>
<path d="M21.3496 18.15V20.218H13.6605V18.15H21.3496Z" fill="#565C54"/>
<path d="M13.6492 24.4281V22.3659H21.3383V24.4281H13.6492Z" fill="#565C54"/>
<path d="M13.6492 28.6497V26.5818H21.3383V28.6497H13.6492Z" fill="#565C54"/>
<path d="M13.6492 32.8656V30.7976H21.3383V32.8656H13.6492Z" fill="#565C54"/>
<path d="M25.5598 20.2237H23.4976V18.1558H25.5598V20.2237Z" fill="#565C54"/>
<path d="M29.7757 20.2237H27.7135V18.1558H29.7757V20.2237Z" fill="#565C54"/>
<path d="M25.5657 22.3716V24.4395H23.5034V22.3716H25.5657Z" fill="#565C54"/>
<path d="M27.7192 22.3602H29.7815V24.4281H27.7192V22.3602Z" fill="#565C54"/>
<path d="M25.5713 26.5875V28.6497H23.4919V26.5875H25.5713Z" fill="#565C54"/>
<path d="M29.7872 26.5875V28.6554H27.7192V26.5875H29.7872Z" fill="#565C54"/>
<path d="M25.5657 32.8713H23.5034V30.8033H25.5657V32.8713Z" fill="#565C54"/>
<path d="M29.7929 30.8033V32.8599H27.7192V30.8033H29.7929Z" fill="#565C54"/>
</svg>
