<svg width="44" height="44" viewBox="0 0 44 44" fill="none" xmlns="http://www.w3.org/2000/svg">
<path d="M25.3334 18.5V15.6667C26.2501 15.2778 27.1879 14.9861 28.1467 14.7917C29.1056 14.5972 30.1123 14.5 31.1667 14.5C31.889 14.5 32.5973 14.5556 33.2917 14.6667C33.9862 14.7778 34.6667 14.9167 35.3334 15.0834V17.75C34.6667 17.5 33.9929 17.3122 33.3117 17.1867C32.6306 17.0611 31.9156 16.9989 31.1667 17C30.1112 17 29.0973 17.1322 28.1251 17.3967C27.1529 17.6611 26.2223 18.0289 25.3334 18.5ZM25.3334 27.6667V24.8334C26.2501 24.4445 27.1879 24.1528 28.1467 23.9584C29.1056 23.7639 30.1123 23.6667 31.1667 23.6667C31.889 23.6667 32.5973 23.7222 33.2917 23.8334C33.9862 23.9445 34.6667 24.0834 35.3334 24.25V26.9167C34.6667 26.6667 33.9929 26.4789 33.3117 26.3534C32.6306 26.2278 31.9156 26.1656 31.1667 26.1667C30.1112 26.1667 29.0973 26.2917 28.1251 26.5417C27.1529 26.7917 26.2223 27.1667 25.3334 27.6667ZM25.3334 23.0834V20.25C26.2501 19.8611 27.1879 19.5695 28.1467 19.375C29.1056 19.1806 30.1123 19.0834 31.1667 19.0834C31.889 19.0834 32.5973 19.1389 33.2917 19.25C33.9862 19.3611 34.6667 19.5 35.3334 19.6667V22.3334C34.6667 22.0834 33.9929 21.8956 33.3117 21.77C32.6306 21.6445 31.9156 21.5822 31.1667 21.5834C30.1112 21.5834 29.0973 21.7156 28.1251 21.98C27.1529 22.2445 26.2223 22.6122 25.3334 23.0834ZM23.6667 30.4167C24.889 29.8334 26.1179 29.3956 27.3534 29.1034C28.589 28.8111 29.8601 28.6656 31.1667 28.6667C32.1667 28.6667 33.1462 28.75 34.1051 28.9167C35.064 29.0834 36.029 29.3334 37.0001 29.6667V13.1667C36.0834 12.7778 35.1317 12.4861 34.1451 12.2917C33.1584 12.0972 32.1656 12 31.1667 12C29.8612 12 28.5695 12.1667 27.2917 12.5C26.014 12.8334 24.8056 13.3334 23.6667 14V30.4167ZM22.0001 35.3334C20.6667 34.2778 19.2223 33.4584 17.6667 32.875C16.1112 32.2917 14.5001 32 12.8334 32C11.6667 32 10.5206 32.1528 9.39508 32.4584C8.26953 32.7639 7.19341 33.1945 6.16675 33.75C5.58341 34.0556 5.02119 34.0417 4.48008 33.7084C3.93897 33.375 3.66786 32.8889 3.66675 32.25V12.1667C3.66675 11.8611 3.74341 11.5695 3.89675 11.2917C4.05008 11.0139 4.27897 10.8056 4.58341 10.6667C5.88897 10.0278 7.22953 9.53447 8.60508 9.18669C9.98064 8.83891 11.3901 8.66558 12.8334 8.66669C14.4445 8.66669 16.0212 8.87503 17.5634 9.29169C19.1056 9.70836 20.5845 10.3334 22.0001 11.1667C23.4167 10.3334 24.8962 9.70836 26.4384 9.29169C27.9806 8.87503 29.5567 8.66669 31.1667 8.66669C32.6112 8.66669 34.0212 8.84058 35.3967 9.18836C36.7723 9.53614 38.1123 10.0289 39.4167 10.6667C39.7223 10.8056 39.9517 11.0139 40.1051 11.2917C40.2584 11.5695 40.3345 11.8611 40.3334 12.1667V32.25C40.3334 32.8889 40.0629 33.375 39.5217 33.7084C38.9806 34.0417 38.4179 34.0556 37.8334 33.75C36.8056 33.1945 35.7295 32.7639 34.6051 32.4584C33.4806 32.1528 32.3345 32 31.1667 32C29.5001 32 27.889 32.2917 26.3334 32.875C24.7779 33.4584 23.3334 34.2778 22.0001 35.3334Z" fill="#565C54"/>
</svg>
