<svg width="44" height="44" viewBox="0 0 44 44" fill="none" xmlns="http://www.w3.org/2000/svg">
<path d="M34.5446 37.9864H34.1732C26.1752 37.9864 18.1772 37.9864 10.1792 37.9864C9.62537 38.0119 9.07232 37.9218 8.55524 37.7219C8.03817 37.5219 7.5684 37.2165 7.17584 36.825C6.78328 36.4335 6.47653 35.9646 6.27513 35.4481C6.07373 34.9316 5.9821 34.3788 6.00605 33.8249V9.04738C5.97959 8.64113 6.04012 8.23391 6.18361 7.85293C6.32709 7.47194 6.55022 7.12596 6.83809 6.83809C7.12596 6.55022 7.47194 6.32709 7.85293 6.18361C8.23391 6.04012 8.64113 5.97959 9.04738 6.00605H28.1079C28.5137 5.98045 28.9203 6.04163 29.3006 6.18549C29.6808 6.32936 30.0261 6.55262 30.3133 6.84039C30.6005 7.12817 30.8231 7.47385 30.9663 7.8544C31.1094 8.23496 31.1698 8.64165 31.1435 9.04738V33.1807C31.0822 34.2053 31.3679 35.2207 31.9544 36.0631C32.541 36.9055 33.3941 37.5258 34.3763 37.8239C34.4393 37.8511 34.4995 37.8841 34.5562 37.9226L34.5446 37.9864ZM14.0157 11.7172H11.8101C11.6438 11.7067 11.4771 11.7321 11.3215 11.7917C11.1658 11.8513 11.0248 11.9437 10.9081 12.0626C10.7914 12.1816 10.7016 12.3243 10.6449 12.481C10.5882 12.6377 10.566 12.8048 10.5797 12.9709C10.5797 14.4374 10.5797 15.902 10.5797 17.3646C10.5729 17.5269 10.6002 17.6889 10.66 17.84C10.7197 17.9911 10.8105 18.128 10.9265 18.2418C11.0425 18.3556 11.181 18.4438 11.3333 18.5006C11.4855 18.5575 11.6479 18.5817 11.8101 18.5718H16.2038C16.3705 18.5841 16.5379 18.5601 16.6946 18.5016C16.8512 18.4431 16.9933 18.3515 17.1113 18.233C17.2292 18.1145 17.3202 17.972 17.3779 17.8151C17.4357 17.6582 17.4588 17.4907 17.4459 17.324V12.9709C17.4588 12.8042 17.4357 12.6367 17.3779 12.4798C17.3202 12.3229 17.2292 12.1804 17.1113 12.0619C16.9933 11.9434 16.8512 11.8518 16.6946 11.7933C16.5379 11.7348 16.3705 11.7108 16.2038 11.7231L14.0157 11.7172ZM18.5718 23.1455H25.3916C25.6555 23.1165 25.9015 22.9979 26.0885 22.8095C26.2755 22.6212 26.3924 22.3744 26.4195 22.1103C26.4467 21.8463 26.3825 21.5809 26.2377 21.3584C26.0929 21.1359 25.8762 20.9698 25.6238 20.8877C25.4695 20.8702 25.3137 20.8702 25.1595 20.8877H11.9552C11.8489 20.8818 11.7423 20.8818 11.636 20.8877C11.4169 20.8984 11.2059 20.9743 11.0302 21.1056C10.8544 21.237 10.7218 21.4177 10.6493 21.6248C10.5907 21.8037 10.5765 21.9942 10.6079 22.1799C10.6394 22.3655 10.7155 22.5408 10.8298 22.6904C10.944 22.8401 11.093 22.9597 11.2637 23.039C11.4345 23.1183 11.6221 23.1548 11.8101 23.1455H18.5718ZM18.5718 27.7191H25.3742C25.6372 27.6922 25.8832 27.5763 26.0715 27.3907C26.2597 27.205 26.3789 26.9606 26.4094 26.698C26.4398 26.4353 26.3797 26.1702 26.239 25.9463C26.0982 25.7225 25.8853 25.5534 25.6354 25.4671C25.4842 25.4397 25.3303 25.43 25.1769 25.4381H11.8101C11.6423 25.4062 11.4696 25.4118 11.3043 25.4545C11.1389 25.4971 10.985 25.5756 10.8535 25.6846C10.7219 25.7935 10.6161 25.9301 10.5434 26.0846C10.4708 26.2391 10.4331 26.4078 10.4331 26.5786C10.4331 26.7493 10.4708 26.918 10.5434 27.0725C10.6161 27.227 10.7219 27.3636 10.8535 27.4726C10.985 27.5815 11.1389 27.66 11.3043 27.7027C11.4696 27.7453 11.6423 27.7509 11.8101 27.7191H18.5718ZM18.5718 32.2869H25.3916C25.6768 32.2889 25.9528 32.1859 26.1669 31.9975C26.381 31.8091 26.5182 31.5485 26.5524 31.2653C26.5772 30.9769 26.4934 30.6896 26.3173 30.4598C26.1412 30.23 25.8855 30.0743 25.6006 30.0233C25.4481 30.0087 25.2945 30.0087 25.142 30.0233H11.9552C11.8489 30.0174 11.7423 30.0174 11.636 30.0233C11.4164 30.0353 11.2053 30.1123 11.0296 30.2446C10.8539 30.3769 10.7215 30.5584 10.6493 30.7662C10.5907 30.9451 10.5765 31.1356 10.6079 31.3213C10.6394 31.5069 10.7155 31.6822 10.8298 31.8318C10.944 31.9815 11.093 32.1011 11.2637 32.1804C11.4345 32.2597 11.6221 32.2962 11.8101 32.2869H18.5718ZM23.1222 14.0041H25.2639C25.4254 14.0195 25.5883 14.0009 25.7421 13.9495C25.8959 13.8981 26.0373 13.815 26.157 13.7056C26.2768 13.5963 26.3723 13.463 26.4374 13.3145C26.5025 13.166 26.5358 13.0054 26.535 12.8432C26.536 12.6794 26.5023 12.5173 26.4362 12.3674C26.37 12.2176 26.2729 12.0834 26.1512 11.9738C26.0295 11.8641 25.886 11.7815 25.73 11.7313C25.5741 11.681 25.4093 11.6644 25.2465 11.6824H20.9689C20.8122 11.6706 20.6547 11.6907 20.506 11.7415C20.3573 11.7923 20.2205 11.8728 20.1038 11.9781C19.9871 12.0834 19.893 12.2113 19.8272 12.354C19.7614 12.4967 19.7253 12.6513 19.7211 12.8084C19.7204 12.9701 19.7535 13.1301 19.8183 13.2782C19.883 13.4263 19.978 13.5592 20.0971 13.6685C20.2162 13.7778 20.3568 13.861 20.51 13.9128C20.6631 13.9645 20.8253 13.9838 20.9863 13.9692L23.1222 14.0041ZM23.1222 18.5777H25.2639C25.4254 18.5931 25.5883 18.5745 25.7421 18.5231C25.8959 18.4717 26.0373 18.3886 26.157 18.2792C26.2768 18.1699 26.3723 18.0366 26.4374 17.8881C26.5025 17.7396 26.5358 17.579 26.535 17.4168C26.536 17.253 26.5023 17.0909 26.4362 16.941C26.37 16.7912 26.2729 16.657 26.1512 16.5474C26.0295 16.4377 25.886 16.3551 25.73 16.3049C25.5741 16.2546 25.4093 16.238 25.2465 16.256H20.9689C20.8122 16.2442 20.6547 16.2643 20.506 16.3151C20.3573 16.3659 20.2205 16.4464 20.1038 16.5517C19.9871 16.657 19.893 16.7849 19.8272 16.9276C19.7614 17.0703 19.7253 17.2249 19.7211 17.382C19.7204 17.5437 19.7535 17.7037 19.8183 17.8518C19.883 17.9999 19.978 18.1328 20.0971 18.2421C20.2162 18.3514 20.3568 18.4346 20.51 18.4864C20.6631 18.5381 20.8253 18.5574 20.9863 18.5428L23.1222 18.5777Z" fill="#565C54"/>
<path d="M33.4302 11.7346C34.1325 11.7346 34.7941 11.6823 35.4384 11.7346C36.1459 11.8016 36.8022 12.1327 37.2765 12.6619C37.7508 13.1911 38.0084 13.8796 37.998 14.5902C37.998 17.4226 37.998 20.2549 37.998 23.0873C37.998 26.5117 37.998 29.9381 37.998 33.3663C38.0234 33.9713 37.8074 34.5616 37.3976 35.0073C36.9878 35.453 36.4177 35.7177 35.8127 35.7431C35.2078 35.7685 34.6175 35.5525 34.1718 35.1427C33.7261 34.7329 33.4614 34.1628 33.436 33.5579C33.436 33.4534 33.436 33.3431 33.436 33.2386V11.7346H33.4302Z" fill="#565C54"/>
</svg>
