<svg width="88" height="88" viewBox="0 0 88 88" fill="none" xmlns="http://www.w3.org/2000/svg">
<path d="M50.6667 37V31.3333C52.5 30.5555 54.3755 29.9722 56.2933 29.5833C58.2111 29.1944 60.2244 29 62.3333 29C63.7778 29 65.1944 29.1111 66.5833 29.3333C67.9722 29.5555 69.3333 29.8333 70.6667 30.1667V35.5C69.3333 35 67.9856 34.6244 66.6233 34.3733C65.2611 34.1222 63.8311 33.9978 62.3333 34C60.2222 34 58.1944 34.2644 56.25 34.7933C54.3056 35.3222 52.4444 36.0578 50.6667 37ZM50.6667 55.3333V49.6667C52.5 48.8889 54.3755 48.3055 56.2933 47.9167C58.2111 47.5278 60.2244 47.3333 62.3333 47.3333C63.7778 47.3333 65.1944 47.4444 66.5833 47.6667C67.9722 47.8889 69.3333 48.1667 70.6667 48.5V53.8333C69.3333 53.3333 67.9856 52.9578 66.6233 52.7067C65.2611 52.4556 63.8311 52.3311 62.3333 52.3333C60.2222 52.3333 58.1944 52.5833 56.25 53.0833C54.3056 53.5833 52.4444 54.3333 50.6667 55.3333ZM50.6667 46.1667V40.5C52.5 39.7222 54.3755 39.1389 56.2933 38.75C58.2111 38.3611 60.2244 38.1667 62.3333 38.1667C63.7778 38.1667 65.1944 38.2778 66.5833 38.5C67.9722 38.7222 69.3333 39 70.6667 39.3333V44.6667C69.3333 44.1667 67.9856 43.7911 66.6233 43.54C65.2611 43.2889 63.8311 43.1644 62.3333 43.1667C60.2222 43.1667 58.1944 43.4311 56.25 43.96C54.3056 44.4889 52.4444 45.2244 50.6667 46.1667ZM47.3333 60.8333C49.7778 59.6667 52.2355 58.7911 54.7067 58.2067C57.1778 57.6222 59.72 57.3311 62.3333 57.3333C64.3333 57.3333 66.2922 57.5 68.21 57.8333C70.1278 58.1667 72.0578 58.6667 74 59.3333V26.3333C72.1667 25.5555 70.2633 24.9722 68.29 24.5833C66.3167 24.1944 64.3311 24 62.3333 24C59.7222 24 57.1389 24.3333 54.5833 25C52.0278 25.6667 49.6111 26.6667 47.3333 28V60.8333ZM44 70.6667C41.3333 68.5556 38.4444 66.9167 35.3333 65.75C32.2222 64.5833 29 64 25.6667 64C23.3333 64 21.0411 64.3055 18.79 64.9167C16.5389 65.5278 14.3867 66.3889 12.3333 67.5C11.1667 68.1111 10.0422 68.0833 8.95999 67.4167C7.87777 66.75 7.33555 65.7778 7.33333 64.5V24.3333C7.33333 23.7222 7.48666 23.1389 7.79333 22.5833C8.09999 22.0278 8.55777 21.6111 9.16666 21.3333C11.7778 20.0555 14.4589 19.0689 17.21 18.3733C19.9611 17.6778 22.78 17.3311 25.6667 17.3333C28.8889 17.3333 32.0422 17.75 35.1267 18.5833C38.2111 19.4167 41.1689 20.6667 44 22.3333C46.8333 20.6667 49.7922 19.4167 52.8767 18.5833C55.9611 17.75 59.1133 17.3333 62.3333 17.3333C65.2222 17.3333 68.0422 17.6811 70.7933 18.3767C73.5444 19.0722 76.2244 20.0578 78.8333 21.3333C79.4444 21.6111 79.9033 22.0278 80.21 22.5833C80.5167 23.1389 80.6689 23.7222 80.6667 24.3333V64.5C80.6667 65.7778 80.1256 66.75 79.0433 67.4167C77.9611 68.0833 76.8355 68.1111 75.6667 67.5C73.6111 66.3889 71.4589 65.5278 69.21 64.9167C66.9611 64.3055 64.6689 64 62.3333 64C59 64 55.7778 64.5833 52.6667 65.75C49.5556 66.9167 46.6667 68.5556 44 70.6667Z" fill="white"/>
</svg>
