<svg width="88" height="88" viewBox="0 0 88 88" fill="none" xmlns="http://www.w3.org/2000/svg">
<path d="M10 56.5279L14.2247 42.379C15.1339 39.3075 16.0543 36.2471 16.9746 33.1756C17.017 32.9929 17.1183 32.8293 17.2629 32.7099V33.4306C17.2629 39.5293 17.2629 45.6279 17.2629 51.7044C17.2329 53.1854 17.5018 54.6573 18.0534 56.0321C18.605 57.4069 19.4281 58.6564 20.4735 59.7059C21.5189 60.7554 22.7651 61.5834 24.1377 62.1405C25.5103 62.6976 26.9811 62.9722 28.4623 62.9481H70.3987C70.361 63.1537 70.3129 63.3572 70.2546 63.5579C69.4451 66.1526 68.6246 68.7473 67.8151 71.3198C67.3381 72.9649 66.2297 74.3545 64.732 75.1854C63.2342 76.0164 61.4686 76.2212 59.8204 75.7552C51.5262 73.5375 43.2431 71.3198 34.9601 69.1022C28.429 67.45 21.8979 65.6426 15.3557 63.9128C14.0318 63.6475 12.8199 62.9856 11.8811 62.0151C10.9423 61.0446 10.321 59.8114 10.0998 58.4794C10.0775 58.4147 10.0437 58.3546 10 58.302L10 56.5279Z" fill="white"/>
<path d="M50.7279 12.0078H72.2838C73.9635 11.9292 75.6179 12.4404 76.9604 13.4529C78.303 14.4654 79.2493 15.9154 79.6355 17.552C79.79 18.2097 79.8645 18.8836 79.8573 19.559C79.8573 30.0487 79.8573 40.531 79.8573 51.0059C79.9012 52.0112 79.7357 53.0146 79.3713 53.9526C79.007 54.8906 78.4517 55.7427 77.7407 56.4547C77.0296 57.1668 76.1784 57.7233 75.241 58.089C74.3035 58.4548 73.3003 58.6217 72.2949 58.5793H29.2496C28.24 58.6246 27.232 58.4598 26.2894 58.0951C25.3469 57.7305 24.4903 57.174 23.7742 56.4609C23.058 55.7478 22.4977 54.8938 22.129 53.9528C21.7602 53.0119 21.5909 52.0046 21.6318 50.9948C21.6318 42.4936 21.6318 33.9925 21.6318 25.4914C21.6318 23.1295 21.5542 20.7566 21.7427 18.4058C21.8948 16.6878 22.6741 15.086 23.9319 13.9059C25.1897 12.7258 26.8379 12.0501 28.5621 12.0078C35.315 12.0078 42.0678 12.0078 48.8096 12.0078H50.7279ZM46.2038 42.2682C46.4478 41.9799 46.6141 41.7914 46.7693 41.5918L56.8155 29.5497C57.2881 28.8948 57.9096 28.3615 58.6286 27.9937C59.3477 27.6259 60.1438 27.4341 60.9515 27.4341C61.7591 27.4341 62.5552 27.6259 63.2743 27.9937C63.9933 28.3615 64.6148 28.8948 65.0874 29.5497L73.304 39.1301L74.0247 39.9396V19.7697C74.0247 18.3393 73.5479 17.8736 72.0843 17.8736H29.3938C27.9523 17.8736 27.4644 18.3615 27.4644 19.7919V46.7146C27.7305 46.4707 27.8968 46.3265 28.0521 46.1713L35.1819 39.0414C35.6649 38.4676 36.2674 38.0063 36.9474 37.6899C37.6274 37.3734 38.3683 37.2094 39.1183 37.2094C39.8683 37.2094 40.6093 37.3734 41.2892 37.6899C41.9692 38.0063 42.5718 38.4676 43.0547 39.0414C44.097 40.0948 45.1172 41.1593 46.2038 42.2682Z" fill="white"/>
<path d="M36.202 32.3772C35.0502 32.3772 33.9242 32.0355 32.9666 31.3953C32.0091 30.7552 31.2629 29.8453 30.8227 28.7809C30.3824 27.7166 30.2677 26.5455 30.4933 25.416C30.7188 24.2864 31.2743 23.2492 32.0896 22.4355C32.9048 21.6218 33.9431 21.0682 35.0731 20.8448C36.2031 20.6215 37.3739 20.7383 38.4375 21.1806C39.501 21.6229 40.4094 22.3708 41.0477 23.3296C41.6861 24.2884 42.0256 25.415 42.0234 26.5668C42.0089 28.1053 41.3906 29.5764 40.3017 30.6632C39.2128 31.7501 37.7405 32.3656 36.202 32.3772Z" fill="white"/>
</svg>
