<svg width="44" height="44" viewBox="0 0 44 44" fill="none" xmlns="http://www.w3.org/2000/svg">
<path d="M31.6446 19.9521C31.6446 23.5762 31.6446 27.2004 31.6446 30.8245C31.6534 31.1229 31.617 31.4209 31.5365 31.7083C31.4456 31.9976 31.2817 32.2587 31.0607 32.4664C30.8397 32.6741 30.569 32.8214 30.2746 32.8942C29.9802 32.967 29.672 32.9628 29.3797 32.8821C29.0874 32.8013 28.8207 32.6467 28.6054 32.4331C27.8933 31.7973 27.2193 31.0916 26.45 30.5257C23.5011 28.2601 19.8745 27.055 16.1562 27.105C14.2805 27.105 12.3985 27.105 10.5228 27.105C8.98255 27.1652 7.47556 26.6464 6.29873 25.6508C5.12191 24.6552 4.36057 23.255 4.16469 21.726C3.86954 20.1531 3.97227 18.5314 4.46352 17.0083C4.9106 15.7951 5.72183 14.7499 6.78608 14.0157C7.85033 13.2815 9.11554 12.8944 10.4084 12.9073C12.4939 12.9073 14.5857 12.9073 16.6648 12.9073C18.8366 12.871 20.9798 12.4057 22.9712 11.5382C24.9626 10.6708 26.7628 9.41819 28.2684 7.85253C28.5929 7.44801 29.0386 7.15828 29.5401 7.02597C29.9938 6.94734 30.4602 7.04884 30.8402 7.3089C31.2202 7.56895 31.4837 7.96703 31.5747 8.41841C31.6108 8.64975 31.6278 8.88367 31.6255 9.11781L31.6446 19.9521Z" fill="#565C54"/>
<path d="M9.45471 28.7136H17.1735C17.3388 29.3494 17.5105 29.9344 17.6313 30.5321C17.9293 32.0369 18.4478 33.4895 19.17 34.8429C19.3251 35.1098 19.4175 35.4086 19.4401 35.7166C19.4627 36.0245 19.4149 36.3336 19.3003 36.6203C19.1857 36.907 19.0074 37.1639 18.7788 37.3715C18.5502 37.5791 18.2774 37.732 17.981 37.8185C17.7184 37.8931 17.4465 37.9295 17.1735 37.9266C15.9782 37.9266 14.7765 37.9266 13.5748 37.9266C12.8299 37.955 12.1019 37.6998 11.5378 37.2124C10.9737 36.7251 10.6156 36.0418 10.5356 35.3007C10.1923 33.177 9.82984 31.0598 9.48014 28.9425C9.46743 28.8726 9.46107 28.7963 9.45471 28.7136Z" fill="#565C54"/>
<path d="M37.494 18.7059C37.9073 18.7059 38.327 18.7059 38.7657 18.7059C39.0963 18.7159 39.41 18.8542 39.6403 19.0916C39.8706 19.329 39.9993 19.6468 39.9992 19.9776C40.0052 20.143 39.9776 20.3079 39.9183 20.4623C39.8589 20.6168 39.7689 20.7577 39.6537 20.8765C39.5384 20.9953 39.4004 21.0895 39.2478 21.1536C39.0952 21.2176 38.9312 21.2502 38.7657 21.2492C37.9264 21.2492 37.0935 21.2492 36.2606 21.2492C36.0768 21.284 35.8876 21.2779 35.7064 21.2312C35.5253 21.1846 35.3566 21.0985 35.2126 20.9792C35.0685 20.8599 34.9525 20.7102 34.8729 20.5409C34.7933 20.3716 34.7521 20.1869 34.7521 19.9998C34.7521 19.8128 34.7933 19.628 34.8729 19.4587C34.9525 19.2894 35.0685 19.1398 35.2126 19.0205C35.3566 18.9012 35.5253 18.8151 35.7064 18.7684C35.8876 18.7217 36.0768 18.7156 36.2606 18.7504C36.6548 18.6996 37.0998 18.7059 37.494 18.7059Z" fill="#565C54"/>
<path d="M37.9964 27.5055C37.9801 27.7389 37.9035 27.9641 37.7743 28.1591C37.645 28.3541 37.4675 28.5122 37.2589 28.6182C37.0538 28.7387 36.8156 28.7908 36.579 28.7668C36.3423 28.7427 36.1195 28.6439 35.9427 28.4847C35.2497 27.8489 34.5821 27.2131 33.9526 26.4946C33.7628 26.2592 33.6661 25.9622 33.6809 25.6602C33.6957 25.3581 33.8209 25.072 34.0328 24.8563C34.2446 24.6405 34.5284 24.51 34.8301 24.4897C35.1318 24.4694 35.4305 24.5607 35.6693 24.7461C36.3687 25.3819 37.0363 26.0622 37.6785 26.7616C37.8261 26.9897 37.9336 27.2413 37.9964 27.5055Z" fill="#565C54"/>
<path d="M37.9455 12.5767C37.8489 12.8304 37.7184 13.07 37.5577 13.2888C37.0045 13.9246 36.4132 14.4714 35.8219 15.0373C35.7181 15.1939 35.5809 15.3255 35.4202 15.4227C35.2595 15.5199 35.0792 15.5804 34.8924 15.5996C34.7055 15.6189 34.5167 15.5965 34.3395 15.5341C34.1624 15.4717 34.0012 15.3708 33.8677 15.2387C33.7341 15.1066 33.6315 14.9466 33.5672 14.7701C33.5029 14.5936 33.4785 14.405 33.4957 14.218C33.513 14.0309 33.5714 13.85 33.6669 13.6883C33.7624 13.5265 33.8925 13.3879 34.048 13.2824C34.6329 12.6466 35.2369 12.0744 35.8473 11.4894C36.0223 11.3102 36.2501 11.1919 36.4973 11.1518C36.7445 11.1118 36.9981 11.1521 37.2207 11.2669C37.4645 11.3805 37.666 11.5685 37.7962 11.8038C37.9265 12.0392 37.9787 12.3098 37.9455 12.5767Z" fill="#565C54"/>
</svg>
