<svg width="281" height="280" viewBox="0 0 281 280" fill="none" xmlns="http://www.w3.org/2000/svg">
<circle cx="141" cy="140" r="130" fill="#FDE8E8"/>
<circle cx="140.5" cy="140" r="84" fill="white"/>
<path fill-rule="evenodd" clip-rule="evenodd" d="M140.5 30C79.7487 30 30.5 79.2487 30.5 140C30.5 200.751 79.7487 250 140.5 250C201.251 250 250.5 200.751 250.5 140C250.5 79.2487 201.251 30 140.5 30ZM197.634 117.007C201.504 113.067 201.447 106.735 197.507 102.866C193.567 98.9956 187.235 99.0527 183.366 102.993L121.75 165.729L97.6345 141.175C93.7646 137.234 87.4332 137.177 83.4929 141.047C79.5527 144.917 79.4956 151.249 83.3655 155.189L113.902 186.281C118.213 190.67 125.287 190.67 129.598 186.281L197.634 117.007Z" fill="#EC1414"/>
</svg>
