<svg width="44" height="44" viewBox="0 0 44 44" fill="none" xmlns="http://www.w3.org/2000/svg">
<path d="M16.75 6H17.1768C17.1895 6.01616 17.205 6.02992 17.2225 6.04064L26.7583 9.84074C26.8388 9.87428 26.9251 9.89155 27.0123 9.89155C27.0995 9.89155 27.1859 9.87428 27.2663 9.84074C29.5423 8.9212 31.8387 8.0169 34.0943 7.10244C35.019 6.74681 35.9182 6.37087 36.8174 6H37.3254C37.5554 6.10533 37.7455 6.28152 37.868 6.50277C37.9905 6.72401 38.0389 6.97868 38.0062 7.22944C38.0062 15.7712 38.0062 24.313 38.0062 32.8547C38.0439 33.1053 37.9867 33.3609 37.8457 33.5714C37.7047 33.7819 37.4902 33.9322 37.2441 33.9927C34.03 35.2797 30.8124 36.5668 27.5915 37.8538C27.4119 37.9318 27.2183 37.9721 27.0225 37.9721C26.8267 37.9721 26.633 37.9318 26.4535 37.8538C23.385 36.6142 20.3147 35.3864 17.2428 34.1705C17.0783 34.1132 16.8993 34.1132 16.7348 34.1705C13.6662 35.3729 10.596 36.5939 7.5241 37.8335C6.73157 38.1485 6.40643 38.0367 6 37.3254V10.7501C6.06746 10.5704 6.17542 10.4086 6.3155 10.2773C6.45559 10.146 6.62404 10.0488 6.80778 9.99315C8.78911 9.21078 10.7671 8.42163 12.7416 7.62571L16.75 6ZM19.0616 16.8465C19.0616 18.264 19.0616 19.6814 19.0616 21.0937C19.0437 21.3144 19.1007 21.5346 19.2233 21.7189C19.3458 21.9032 19.5269 22.0409 19.7373 22.1098L23.5628 23.6339C23.715 23.7181 23.8876 23.7585 24.0614 23.7504C24.2352 23.7424 24.4033 23.6862 24.5471 23.5883C24.6908 23.4903 24.8046 23.3544 24.8757 23.1956C24.9468 23.0368 24.9724 22.8614 24.9497 22.6889C24.9497 19.8643 24.9497 17.0447 24.9497 14.22C24.9727 13.9971 24.9167 13.7732 24.7913 13.5874C24.6659 13.4017 24.4792 13.2659 24.2639 13.2039L20.4688 11.6798C20.3155 11.5904 20.1399 11.5463 19.9626 11.5526C19.7852 11.5588 19.6132 11.6151 19.4665 11.7151C19.3198 11.815 19.2043 11.9544 19.1336 12.1172C19.0628 12.28 19.0396 12.4595 19.0667 12.6349C19.0565 14.0371 19.0616 15.4393 19.0616 16.8465ZM15.9118 27.3375C15.9118 26.6516 15.9118 25.9607 15.9118 25.2748C15.9361 25.099 15.9107 24.9199 15.8384 24.7578C15.7661 24.5957 15.6499 24.4571 15.5029 24.3577C15.3559 24.2582 15.1839 24.202 15.0066 24.1953C14.8292 24.1886 14.6535 24.2317 14.4994 24.3197L10.7349 25.8134C10.5008 25.8757 10.2979 26.022 10.1648 26.2244C10.0317 26.4268 9.97786 26.6711 10.0135 26.9107C10.0135 28.2672 10.0135 29.6185 10.0135 30.975C9.99537 31.1487 10.0252 31.324 10.0997 31.4818C10.1743 31.6397 10.2907 31.7742 10.4363 31.8705C10.5819 31.9669 10.7511 32.0215 10.9256 32.0284C11.1 32.0353 11.273 31.9943 11.4258 31.9098L15.1446 30.4365C15.3839 30.3731 15.5918 30.2246 15.7293 30.0188C15.8668 29.813 15.9244 29.5641 15.8914 29.3188L15.9118 27.3375ZM29.1207 15.4291C29.2109 15.4171 29.2995 15.3949 29.3848 15.3631C30.7261 14.8296 32.0673 14.3013 33.4034 13.7526C33.5198 13.7082 33.6259 13.6405 33.7151 13.5536C33.8044 13.4668 33.875 13.3626 33.9226 13.2475C33.9701 13.1323 33.9937 13.0087 33.9918 12.8842C33.9899 12.7596 33.9625 12.6368 33.9114 12.5232C33.8647 12.4092 33.7959 12.3056 33.7089 12.2183C33.622 12.131 33.5187 12.0618 33.4049 12.0146C33.2911 11.9674 33.1691 11.9431 33.0459 11.9432C32.9227 11.9433 32.8008 11.9678 32.6871 12.0151C32.4534 12.1015 32.2248 12.198 31.9911 12.2895C30.9039 12.7264 29.8116 13.1582 28.7244 13.6002C28.5055 13.6769 28.323 13.8321 28.2122 14.0359C28.1014 14.2396 28.0703 14.4773 28.1249 14.7026C28.1794 14.9191 28.3065 15.1103 28.4849 15.2443C28.6634 15.3784 28.8824 15.4472 29.1054 15.4393L29.1207 15.4291ZM20.1132 24.6246C19.8847 24.6069 19.6574 24.6706 19.4714 24.8045C19.2854 24.9384 19.1528 25.1338 19.0971 25.3561C19.0516 25.5777 19.0871 25.8082 19.1971 26.0059C19.3071 26.2035 19.4843 26.3551 19.6966 26.4332C21.0175 26.9683 22.3401 27.495 23.6644 28.0132C23.8081 28.0696 23.9624 28.0939 24.1165 28.0843C24.3138 28.061 24.4989 27.9764 24.6456 27.8424C24.7923 27.7084 24.8933 27.5318 24.9345 27.3375C24.9739 27.1197 24.9348 26.895 24.8241 26.7033C24.7134 26.5117 24.5383 26.3656 24.3299 26.2909L20.6263 24.7973C20.4231 24.716 20.225 24.6601 20.1132 24.6246ZM33.9876 17.2631C33.9912 17.1123 33.9578 16.963 33.8903 16.828C33.8229 16.6931 33.7234 16.5767 33.6007 16.489C33.478 16.4014 33.3356 16.3451 33.1861 16.325C33.0366 16.305 32.8845 16.3218 32.743 16.3741C31.3763 16.8821 30.0199 17.446 28.6787 17.9998C28.4914 18.1135 28.3501 18.2894 28.2793 18.4968C28.2086 18.7042 28.2129 18.9298 28.2915 19.1343C28.3702 19.3388 28.5182 19.5091 28.7096 19.6156C28.9011 19.7221 29.1239 19.758 29.3391 19.7169C30.6939 19.1818 32.0486 18.6382 33.4034 18.0862C33.5712 18.022 33.7162 17.9096 33.8202 17.7631C33.9242 17.6167 33.9824 17.4427 33.9876 17.2631ZM19.0616 29.9996C19.0726 30.1701 19.1333 30.3336 19.2362 30.4699C19.3391 30.6063 19.4798 30.7094 19.6407 30.7667C20.9921 31.3154 22.3384 31.8539 23.705 32.3823C23.9308 32.462 24.1785 32.4515 24.3968 32.3531C24.615 32.2547 24.7869 32.0759 24.8766 31.854C24.9663 31.632 24.9669 31.384 24.8783 31.1616C24.7897 30.9392 24.6188 30.7595 24.401 30.66C23.0497 30.1012 21.6932 29.5525 20.3367 29.0292C20.1869 28.9711 20.0246 28.9523 19.8654 28.9748C19.7062 28.9972 19.5555 29.0601 19.4276 29.1575C19.2996 29.2548 19.1988 29.3834 19.1347 29.5308C19.0707 29.6782 19.0455 29.8396 19.0616 29.9996ZM33.9876 30.3146C33.9907 30.1636 33.9566 30.0141 33.8886 29.8793C33.8205 29.7445 33.7204 29.6284 33.5971 29.5412C33.4738 29.454 33.3311 29.3983 33.1813 29.379C33.0315 29.3597 32.8792 29.3774 32.7379 29.4306C31.3713 29.9386 30.0148 30.5076 28.6736 31.0614C28.4445 31.1537 28.2615 31.3332 28.1648 31.5604C28.0681 31.7876 28.0656 32.044 28.1579 32.273C28.2502 32.5021 28.4297 32.6851 28.657 32.7818C28.8842 32.8785 29.1405 32.881 29.3696 32.7887C30.7311 32.2806 32.0927 31.7116 33.4339 31.1579C33.5999 31.0888 33.7415 30.9715 33.8402 30.8212C33.9389 30.6709 33.9903 30.4944 33.9876 30.3146ZM29.0953 28.5009C29.1882 28.4858 29.28 28.4637 29.3696 28.4348C30.7108 27.9268 32.052 27.3679 33.3882 26.8193C33.505 26.7786 33.6125 26.7147 33.7041 26.6315C33.7957 26.5483 33.8695 26.4475 33.9212 26.3351C33.9729 26.2227 34.0014 26.101 34.005 25.9773C34.0085 25.8536 33.9871 25.7304 33.9419 25.6152C33.8941 25.5003 33.8241 25.3959 33.7359 25.3081C33.6476 25.2203 33.5429 25.1508 33.4277 25.1036C33.3125 25.0564 33.1891 25.0324 33.0646 25.033C32.9402 25.0336 32.817 25.0588 32.7023 25.1072C32.4585 25.1936 32.2248 25.3002 31.9809 25.3968C30.8937 25.8337 29.8014 26.2655 28.7142 26.7075C28.5029 26.7878 28.3282 26.9428 28.2234 27.1431C28.1186 27.3434 28.0907 27.5753 28.1452 27.7947C28.2058 27.9994 28.3311 28.1789 28.5024 28.3063C28.6738 28.4336 28.8818 28.5019 29.0953 28.5009ZM15.8864 16.4503C15.8889 16.2997 15.8545 16.1508 15.786 16.0167C15.7176 15.8826 15.6173 15.7673 15.4939 15.681C15.3705 15.5947 15.2277 15.5401 15.0783 15.5218C14.9288 15.5036 14.7771 15.5224 14.6366 15.5765C13.2801 16.0845 11.9338 16.6433 10.5723 17.192C10.359 17.2947 10.1926 17.4745 10.1067 17.6951C10.0208 17.9157 10.0218 18.1607 10.1095 18.3806C10.1972 18.6005 10.3651 18.7789 10.5792 18.8798C10.7934 18.9808 11.0378 18.9967 11.2632 18.9244C12.6197 18.4164 13.966 17.8575 15.3275 17.3038C15.5007 17.2398 15.6494 17.123 15.7525 16.9698C15.8555 16.8166 15.9077 16.6348 15.9016 16.4503H15.8864ZM11.0295 14.6366C11.1361 14.616 11.2413 14.5888 11.3445 14.5553C12.6553 14.0473 13.9711 13.5088 15.2767 12.9804C15.3908 12.9347 15.4948 12.867 15.5827 12.7811C15.6706 12.6952 15.7407 12.5929 15.7891 12.4799C15.8374 12.3669 15.8631 12.2455 15.8645 12.1226C15.8659 11.9997 15.8432 11.8777 15.7975 11.7637C15.7518 11.6496 15.684 11.5456 15.5981 11.4577C15.5123 11.3698 15.4099 11.2996 15.2969 11.2513C15.1839 11.2029 15.0625 11.1773 14.9397 11.1759C14.8168 11.1744 14.6948 11.1972 14.5807 11.2429L13.3055 11.751C12.4114 12.1066 11.5122 12.4622 10.618 12.828C10.4158 12.9104 10.2493 13.0617 10.1479 13.2551C10.0466 13.4485 10.0169 13.6715 10.0643 13.8847C10.1144 14.1018 10.2377 14.295 10.4135 14.432C10.5892 14.5689 10.8068 14.6411 11.0295 14.6366ZM14.8906 19.8694C14.7746 19.8894 14.6607 19.9201 14.5502 19.9608C13.253 20.4756 11.9711 20.9887 10.7044 21.5001C10.5775 21.5362 10.4596 21.5986 10.3584 21.6833C10.2572 21.7679 10.175 21.8729 10.1171 21.9915C10.0592 22.11 10.0268 22.2394 10.0222 22.3713C10.0176 22.5031 10.0408 22.6344 10.0903 22.7567C10.1398 22.879 10.2144 22.9895 10.3095 23.0811C10.4045 23.1726 10.5177 23.2431 10.6418 23.288C10.7658 23.3329 10.8979 23.3511 11.0295 23.3416C11.1611 23.332 11.2892 23.2949 11.4055 23.2325C12.2082 22.9176 13.0058 22.5924 13.8085 22.2724C14.3165 22.0691 14.8246 21.8761 15.3326 21.6576C15.5371 21.5729 15.7045 21.4176 15.8043 21.22C15.904 21.0223 15.9295 20.7955 15.8762 20.5806C15.82 20.3661 15.691 20.1778 15.5111 20.048C15.3313 19.9182 15.1119 19.855 14.8906 19.8694ZM29.1156 24.1419C29.2143 24.1283 29.3114 24.1044 29.4052 24.0708C30.7362 23.5628 32.0724 23.0192 33.3983 22.4807C33.5131 22.433 33.6173 22.3631 33.7051 22.2751C33.7928 22.1871 33.8624 22.0827 33.9098 21.9679C33.9572 21.853 33.9815 21.7299 33.9814 21.6056C33.9812 21.4814 33.9566 21.3583 33.9089 21.2436C33.8612 21.1288 33.7914 21.0246 33.7034 20.9368C33.6154 20.8491 33.511 20.7795 33.3961 20.7321C33.2812 20.6847 33.1582 20.6604 33.0339 20.6605C32.9096 20.6607 32.7866 20.6853 32.6718 20.733C32.301 20.8702 31.9352 21.0226 31.5694 21.1699C30.6143 21.5509 29.6592 21.9269 28.7041 22.3181C28.4919 22.3964 28.3158 22.5498 28.2091 22.7492C28.1023 22.9486 28.0724 23.1802 28.1249 23.4002C28.1772 23.6163 28.3021 23.8079 28.4788 23.9429C28.6554 24.0779 28.873 24.1482 29.0953 24.1419H29.1156Z" fill="#565C54"/>
<path d="M23.0699 21.4138C22.3637 21.1344 21.6982 20.8753 21.0378 20.6009C21.0069 20.5778 20.9817 20.5479 20.9641 20.5136C20.9465 20.4793 20.9369 20.4414 20.9362 20.4028C20.9362 18.2487 20.9362 16.0947 20.9362 13.8847L22.0234 14.3165C22.3688 14.4588 22.8311 14.5248 23.0394 14.7839C23.2477 15.043 23.0953 15.485 23.0953 15.8457V21.4341L23.0699 21.4138Z" fill="#565C54"/>
<path d="M14.037 26.5348C14.037 27.3019 14.037 28.0081 14.037 28.7143C14.035 28.753 14.0239 28.7907 14.0045 28.8243C13.985 28.8579 13.9578 28.8863 13.9252 28.9073C13.2698 29.1817 12.6043 29.4153 11.8931 29.7253C11.8931 28.948 11.8931 28.2011 11.8931 27.5001C11.8931 27.4493 11.9642 27.373 12.015 27.3476L14.037 26.5348Z" fill="#565C54"/>
</svg>
