<svg width="44" height="44" viewBox="0 0 44 44" fill="none" xmlns="http://www.w3.org/2000/svg">
<path d="M5 28.264L7.11235 21.1895C7.56697 19.6538 8.02714 18.1236 8.48732 16.5878C8.50849 16.4965 8.55915 16.4147 8.63147 16.355V16.7154C8.63147 19.7647 8.63147 22.814 8.63147 25.8522C8.61646 26.5927 8.75089 27.3287 9.0267 28.0161C9.30252 28.7035 9.71407 29.3282 10.2368 29.853C10.7595 30.3777 11.3826 30.7918 12.0689 31.0703C12.7552 31.3488 13.4906 31.4861 14.2311 31.4741H35.1994C35.1805 31.5769 35.1564 31.6786 35.1273 31.779C34.7226 33.0764 34.3123 34.3737 33.9076 35.66C33.669 36.4825 33.1149 37.1773 32.366 37.5927C31.6171 38.0082 30.7343 38.1106 29.9102 37.8776C25.7631 36.7688 21.6216 35.66 17.48 34.5511C14.2145 33.725 10.9489 32.8213 7.67786 31.9564C7.01589 31.8238 6.40995 31.4928 5.94055 31.0076C5.47115 30.5223 5.16051 29.9058 5.0499 29.2397C5.03877 29.2074 5.02186 29.1773 5 29.151L5 28.264Z" fill="#565C54"/>
<path d="M25.3639 6.00394H36.1419C36.9818 5.96465 37.8089 6.22025 38.4802 6.72649C39.1515 7.23273 39.6246 7.95775 39.8177 8.77605C39.895 9.10486 39.9322 9.44181 39.9286 9.77955C39.9286 15.0244 39.9286 20.2655 39.9286 25.503C39.9506 26.0056 39.8678 26.5074 39.6856 26.9763C39.5035 27.4453 39.2258 27.8714 38.8703 28.2274C38.5148 28.5834 38.0892 28.8617 37.6205 29.0446C37.1517 29.2274 36.6501 29.3109 36.1474 29.2897H14.6248C14.12 29.3124 13.616 29.2299 13.1447 29.0476C12.6734 28.8653 12.2451 28.587 11.8871 28.2305C11.529 27.874 11.2488 27.4469 11.0645 26.9764C10.8801 26.506 10.7954 26.0023 10.8159 25.4974C10.8159 21.2469 10.8159 16.9963 10.8159 12.7457C10.8159 11.5648 10.7771 10.3783 10.8713 9.20296C10.9474 8.34396 11.337 7.54302 11.9659 6.95298C12.5948 6.36294 13.4189 6.0251 14.281 6.00394C17.6575 6.00394 21.0339 6.00394 24.4048 6.00394H25.3639ZM23.1019 21.1341C23.2239 20.99 23.307 20.8957 23.3846 20.7959L28.4077 14.7749C28.644 14.4474 28.9548 14.1808 29.3143 13.9969C29.6738 13.813 30.0719 13.7171 30.4757 13.7171C30.8795 13.7171 31.2776 13.813 31.6371 13.9969C31.9967 14.1808 32.3074 14.4474 32.5437 14.7749L36.652 19.5651L37.0123 19.9698V9.88489C37.0123 9.16969 36.7739 8.93683 36.0421 8.93683H14.6969C13.9761 8.93683 13.7322 9.18078 13.7322 9.89598V23.3574C13.8652 23.2354 13.9484 23.1633 14.026 23.0857L17.5909 19.5208C17.8324 19.2338 18.1337 19.0032 18.4737 18.845C18.8137 18.6867 19.1841 18.6047 19.5591 18.6047C19.9341 18.6047 20.3046 18.6867 20.6446 18.845C20.9846 19.0032 21.2859 19.2338 21.5273 19.5208C22.0485 20.0475 22.5586 20.5797 23.1019 21.1341Z" fill="#565C54"/>
<path d="M18.101 16.1886C17.5251 16.1886 16.9621 16.0178 16.4833 15.6977C16.0046 15.3776 15.6315 14.9227 15.4113 14.3905C15.1912 13.8583 15.1339 13.2728 15.2466 12.708C15.3594 12.1432 15.6372 11.6246 16.0448 11.2178C16.4524 10.8109 16.9716 10.5341 17.5366 10.4224C18.1016 10.3108 18.687 10.3692 19.2187 10.5903C19.7505 10.8115 20.2047 11.1854 20.5239 11.6648C20.8431 12.1442 21.0128 12.7075 21.0117 13.2834C21.0045 14.0527 20.6953 14.7882 20.1509 15.3317C19.6064 15.8751 18.8702 16.1828 18.101 16.1886Z" fill="#565C54"/>
</svg>
