<svg width="24" height="24" viewBox="0 0 24 24" fill="none" xmlns="http://www.w3.org/2000/svg">
<path d="M18.8425 20.7199H18.6399C14.2773 20.7199 9.9148 20.7199 5.55225 20.7199C5.25018 20.7338 4.94852 20.6846 4.66647 20.5755C4.38443 20.4665 4.12819 20.2999 3.91407 20.0863C3.69995 19.8728 3.53263 19.617 3.42278 19.3353C3.31292 19.0536 3.26294 18.7521 3.27601 18.4499V4.93491C3.26157 4.71332 3.29459 4.4912 3.37285 4.28339C3.45112 4.07558 3.57282 3.88686 3.72984 3.72984C3.88686 3.57282 4.07558 3.45112 4.28339 3.37285C4.4912 3.29459 4.71332 3.26157 4.93491 3.27601H15.3316C15.5529 3.26204 15.7747 3.29541 15.9821 3.37388C16.1895 3.45236 16.3778 3.57413 16.5345 3.7311C16.6912 3.88807 16.8126 4.07662 16.8907 4.2842C16.9688 4.49177 17.0017 4.71361 16.9873 4.93491V18.0985C16.9539 18.6574 17.1098 19.2113 17.4297 19.6708C17.7496 20.1302 18.2149 20.4686 18.7507 20.6312C18.785 20.646 18.8179 20.664 18.8488 20.685L18.8425 20.7199ZM7.64488 6.3912H6.44186C6.35113 6.38544 6.26023 6.39929 6.17533 6.43179C6.09043 6.4643 6.01353 6.51471 5.94985 6.57959C5.88617 6.64447 5.83721 6.7223 5.8063 6.80779C5.77538 6.89328 5.76324 6.98443 5.7707 7.07503C5.7707 7.87493 5.7707 8.67378 5.7707 9.47158C5.76699 9.56013 5.78191 9.64847 5.8145 9.73089C5.84709 9.81331 5.89661 9.88797 5.95988 9.95004C6.02314 10.0121 6.09873 10.0602 6.18176 10.0912C6.26478 10.1222 6.35339 10.1355 6.44186 10.1301H8.83841C8.92936 10.1367 9.02067 10.1237 9.10611 10.0918C9.19154 10.0599 9.26907 10.0099 9.33341 9.94527C9.39774 9.88064 9.44735 9.80287 9.47885 9.71729C9.51034 9.63171 9.52298 9.54034 9.5159 9.44942V7.07503C9.52298 6.98411 9.51034 6.89274 9.47885 6.80716C9.44735 6.72158 9.39774 6.64381 9.33341 6.57918C9.26907 6.51454 9.19154 6.46457 9.10611 6.43267C9.02067 6.40078 8.92936 6.38771 8.83841 6.39437L7.64488 6.3912ZM10.1301 12.6248H13.85C13.9939 12.609 14.128 12.5443 14.2301 12.4415C14.3321 12.3388 14.3958 12.2042 14.4106 12.0602C14.4254 11.9161 14.3904 11.7714 14.3115 11.65C14.2325 11.5286 14.1143 11.438 13.9766 11.3933C13.8924 11.3837 13.8075 11.3837 13.7233 11.3933H6.521C6.46301 11.3901 6.40488 11.3901 6.34688 11.3933C6.22736 11.3991 6.1123 11.4405 6.01643 11.5121C5.92055 11.5838 5.84822 11.6824 5.80869 11.7953C5.77672 11.8929 5.76898 11.9968 5.78613 12.0981C5.80328 12.1994 5.8448 12.2949 5.90712 12.3766C5.96944 12.4582 6.05068 12.5235 6.14384 12.5667C6.237 12.6099 6.33928 12.6299 6.44186 12.6248H10.1301ZM10.1301 15.1195H13.8405C13.9839 15.1048 14.1181 15.0416 14.2208 14.9403C14.3235 14.8391 14.3885 14.7058 14.4051 14.5625C14.4217 14.4193 14.3889 14.2746 14.3122 14.1525C14.2354 14.0304 14.1192 13.9382 13.9829 13.8911C13.9004 13.8762 13.8165 13.8709 13.7328 13.8753H6.44186C6.35035 13.8579 6.25613 13.861 6.16594 13.8842C6.07574 13.9075 5.99178 13.9503 5.92005 14.0097C5.84831 14.0691 5.79057 14.1437 5.75094 14.2279C5.7113 14.3122 5.69075 14.4042 5.69075 14.4974C5.69075 14.5905 5.7113 14.6825 5.75094 14.7668C5.79057 14.8511 5.84831 14.9256 5.92005 14.985C5.99178 15.0444 6.07574 15.0873 6.16594 15.1105C6.25613 15.1338 6.35035 15.1368 6.44186 15.1195H10.1301ZM10.1301 17.611H13.85C14.0055 17.6121 14.156 17.5559 14.2728 17.4532C14.3896 17.3504 14.4645 17.2082 14.4831 17.0538C14.4967 16.8965 14.4509 16.7398 14.3548 16.6144C14.2588 16.4891 14.1194 16.4041 13.9639 16.3763C13.8807 16.3684 13.797 16.3684 13.7138 16.3763H6.521C6.46301 16.3731 6.40488 16.3731 6.34688 16.3763C6.2271 16.3828 6.11196 16.4249 6.01612 16.497C5.92029 16.5692 5.84808 16.6682 5.80869 16.7815C5.77672 16.8791 5.76898 16.9831 5.78613 17.0843C5.80328 17.1856 5.8448 17.2812 5.90712 17.3628C5.96944 17.4444 6.05068 17.5097 6.14384 17.5529C6.237 17.5962 6.33928 17.6161 6.44186 17.611H10.1301ZM12.6121 7.63855H13.7803C13.8684 7.64696 13.9572 7.63681 14.0411 7.60878C14.125 7.58074 14.2021 7.53544 14.2674 7.47579C14.3328 7.41613 14.3849 7.34345 14.4204 7.26243C14.4559 7.18141 14.474 7.09384 14.4736 7.00538C14.4742 6.91603 14.4558 6.82758 14.4197 6.74584C14.3836 6.6641 14.3307 6.59092 14.2643 6.53112C14.1979 6.47131 14.1196 6.42623 14.0345 6.39884C13.9495 6.37146 13.8596 6.36238 13.7708 6.37221H11.4376C11.3521 6.36575 11.2662 6.37671 11.1851 6.40444C11.104 6.43216 11.0293 6.47606 10.9657 6.53349C10.902 6.59092 10.8507 6.66067 10.8148 6.73852C10.7789 6.81637 10.7592 6.90069 10.7569 6.98638C10.7566 7.07455 10.7746 7.16183 10.8099 7.24261C10.8453 7.3234 10.8971 7.39592 10.962 7.45552C11.027 7.51513 11.1037 7.56051 11.1872 7.58875C11.2708 7.617 11.3593 7.62749 11.4471 7.61956L12.6121 7.63855ZM12.6121 10.1332H13.7803C13.8684 10.1416 13.9572 10.1315 14.0411 10.1035C14.125 10.0754 14.2021 10.0301 14.2674 9.97048C14.3328 9.91082 14.3849 9.83814 14.4204 9.75712C14.4559 9.6761 14.474 9.58853 14.4736 9.50007C14.4742 9.41072 14.4558 9.32227 14.4197 9.24053C14.3836 9.15879 14.3307 9.08561 14.2643 9.02581C14.1979 8.966 14.1196 8.92092 14.0345 8.89354C13.9495 8.86615 13.8596 8.85707 13.7708 8.8669H11.4376C11.3521 8.86044 11.2662 8.8714 11.1851 8.89913C11.104 8.92685 11.0293 8.97076 10.9657 9.02818C10.902 9.08561 10.8507 9.15536 10.8148 9.23321C10.7789 9.31106 10.7592 9.39539 10.7569 9.48108C10.7566 9.56925 10.7746 9.65652 10.8099 9.7373C10.8453 9.81809 10.8971 9.89061 10.962 9.95021C11.027 10.0098 11.1037 10.0552 11.1872 10.0834C11.2708 10.1117 11.3593 10.1222 11.4471 10.1142L12.6121 10.1332Z" fill="#565C54"/>
<path d="M18.2346 6.40072C18.6177 6.40072 18.9786 6.37223 19.33 6.40072C19.7159 6.4373 20.0739 6.6179 20.3326 6.90655C20.5913 7.1952 20.7319 7.57073 20.7261 7.95832C20.7261 9.50326 20.7261 11.0482 20.7261 12.5931C20.7261 14.461 20.7261 16.3299 20.7261 18.1999C20.74 18.5298 20.6222 18.8518 20.3987 19.0949C20.1751 19.3381 19.8642 19.4824 19.5342 19.4963C19.2042 19.5101 18.8823 19.3923 18.6391 19.1688C18.396 18.9453 18.2516 18.6343 18.2378 18.3043C18.2378 18.2473 18.2378 18.1872 18.2378 18.1302V6.40072H18.2346Z" fill="#565C54"/>
</svg>
