<svg width="88" height="88" viewBox="0 0 88 88" fill="none" xmlns="http://www.w3.org/2000/svg">
<path d="M69.0893 75.9729H68.3463C52.3503 75.9729 36.3543 75.9729 20.3583 75.9729C19.2507 76.0239 18.1446 75.8437 17.1105 75.4438C16.0763 75.0438 15.1368 74.433 14.3517 73.65C13.5666 72.8671 12.9531 71.9293 12.5503 70.8962C12.1475 69.8632 11.9642 68.7576 12.0121 67.6499V18.0948C11.9592 17.2823 12.0802 16.4678 12.3672 15.7059C12.6542 14.9439 13.1004 14.2519 13.6762 13.6762C14.2519 13.1004 14.9439 12.6542 15.7059 12.3672C16.4678 12.0802 17.2823 11.9592 18.0948 12.0121H56.2158C57.0274 11.9609 57.8406 12.0833 58.6011 12.371C59.3617 12.6587 60.0522 13.1052 60.6266 13.6808C61.2011 14.2563 61.6463 14.9477 61.9326 15.7088C62.2188 16.4699 62.3396 17.2833 62.2869 18.0948V66.3614C62.1645 68.4106 62.7358 70.4414 63.9089 72.1262C65.0819 73.811 66.7882 75.0515 68.7526 75.6479C68.8785 75.7021 68.999 75.7682 69.1125 75.8452L69.0893 75.9729ZM28.0313 23.4345H23.6202C23.2876 23.4134 22.9543 23.4641 22.643 23.5833C22.3317 23.7025 22.0497 23.8873 21.8162 24.1252C21.5827 24.3631 21.4032 24.6485 21.2898 24.962C21.1765 25.2754 21.132 25.6096 21.1593 25.9419C21.1593 28.8748 21.1593 31.804 21.1593 34.7292C21.1457 35.0539 21.2004 35.3778 21.3199 35.68C21.4394 35.9822 21.621 36.256 21.853 36.4836C22.0849 36.7112 22.3621 36.8875 22.6665 37.0012C22.971 37.1149 23.2959 37.1635 23.6202 37.1437H32.4076C32.7411 37.1681 33.0759 37.1202 33.3891 37.0033C33.7024 36.8863 33.9867 36.7031 34.2226 36.4661C34.4585 36.2291 34.6404 35.9439 34.7559 35.6301C34.8713 35.3163 34.9177 34.9813 34.8917 34.6479V25.9419C34.9177 25.6085 34.8713 25.2735 34.7559 24.9597C34.6404 24.6459 34.4585 24.3607 34.2226 24.1237C33.9867 23.8867 33.7024 23.7035 33.3891 23.5866C33.0759 23.4696 32.7411 23.4217 32.4076 23.4461L28.0313 23.4345ZM37.1437 46.2909H50.7832C51.311 46.2329 51.8029 45.9958 52.177 45.6191C52.5511 45.2423 52.7848 44.7488 52.8391 44.2206C52.8934 43.6925 52.765 43.1617 52.4754 42.7168C52.1858 42.2718 51.7525 41.9395 51.2476 41.7753C50.939 41.7403 50.6275 41.7403 50.3189 41.7753H23.9104C23.6978 41.7636 23.4846 41.7636 23.272 41.7753C22.8337 41.7969 22.4118 41.9487 22.0603 42.2113C21.7088 42.4739 21.4436 42.8354 21.2986 43.2496C21.1814 43.6075 21.153 43.9885 21.2159 44.3598C21.2788 44.7311 21.431 45.0815 21.6595 45.3808C21.888 45.6802 22.1859 45.9194 22.5275 46.078C22.8691 46.2365 23.2441 46.3096 23.6202 46.2909H37.1437ZM37.1437 55.4381H50.7484C51.2745 55.3844 51.7665 55.1527 52.1429 54.7813C52.5194 54.41 52.7578 53.9212 52.8188 53.396C52.8797 52.8707 52.7595 52.3403 52.478 51.8927C52.1965 51.445 51.7706 51.1068 51.2708 50.9342C50.9684 50.8795 50.6606 50.86 50.3537 50.8761H23.6202C23.2847 50.8125 22.9392 50.8237 22.6085 50.9089C22.2778 50.9941 21.9699 51.1513 21.7069 51.3691C21.4439 51.587 21.2322 51.8601 21.0868 52.1692C20.9415 52.4783 20.8662 52.8156 20.8662 53.1571C20.8662 53.4986 20.9415 53.836 21.0868 54.145C21.2322 54.4541 21.4439 54.7273 21.7069 54.9451C21.9699 55.163 22.2778 55.3201 22.6085 55.4053C22.9392 55.4905 23.2847 55.5017 23.6202 55.4381H37.1437ZM37.1437 64.5737H50.7832C51.3536 64.5778 51.9055 64.3718 52.3337 63.995C52.7619 63.6182 53.0364 63.0969 53.1049 62.5307C53.1545 61.9538 52.9867 61.3792 52.6345 60.9196C52.2823 60.46 51.7711 60.1486 51.2011 60.0465C50.8961 60.0174 50.5891 60.0174 50.2841 60.0465H23.9104C23.6978 60.0348 23.4846 60.0348 23.272 60.0465C22.8328 60.0705 22.4106 60.2246 22.0592 60.4892C21.7078 60.7538 21.443 61.1169 21.2986 61.5324C21.1814 61.8903 21.153 62.2713 21.2159 62.6426C21.2788 63.0139 21.431 63.3643 21.6595 63.6636C21.888 63.963 22.1859 64.2022 22.5275 64.3608C22.8691 64.5193 23.2441 64.5924 23.6202 64.5737H37.1437ZM46.2445 28.0081H50.5279C50.8508 28.0389 51.1765 28.0017 51.4842 27.8989C51.7918 27.7961 52.0745 27.63 52.314 27.4113C52.5535 27.1926 52.7446 26.9261 52.8748 26.629C53.005 26.3319 53.0715 26.0108 53.07 25.6865C53.072 25.3589 53.0047 25.0345 52.8724 24.7348C52.7401 24.4351 52.5458 24.1668 52.3024 23.9475C52.059 23.7282 51.7719 23.5629 51.4601 23.4625C51.1482 23.3621 50.8187 23.3288 50.493 23.3648H41.9378C41.6244 23.3412 41.3095 23.3814 41.012 23.483C40.7146 23.5847 40.4409 23.7457 40.2076 23.9562C39.9742 24.1668 39.786 24.4225 39.6545 24.708C39.5229 24.9934 39.4506 25.3026 39.4421 25.6168C39.4408 25.9401 39.507 26.2601 39.6365 26.5563C39.766 26.8525 39.956 27.1184 40.1942 27.337C40.4324 27.5555 40.7137 27.7219 41.0199 27.8255C41.3262 27.9291 41.6507 27.9676 41.9727 27.9385L46.2445 28.0081ZM46.2445 37.1553H50.5279C50.8508 37.1861 51.1765 37.1489 51.4842 37.0461C51.7918 36.9434 52.0745 36.7772 52.314 36.5585C52.5535 36.3398 52.7446 36.0733 52.8748 35.7762C53.005 35.4791 53.0715 35.158 53.07 34.8337C53.072 34.5061 53.0047 34.1817 52.8724 33.882C52.7401 33.5823 52.5458 33.314 52.3024 33.0947C52.059 32.8754 51.7719 32.7101 51.4601 32.6097C51.1482 32.5093 50.8187 32.476 50.493 32.5121H41.9378C41.6244 32.4884 41.3095 32.5286 41.012 32.6302C40.7146 32.7319 40.4409 32.8929 40.2076 33.1034C39.9742 33.314 39.786 33.5697 39.6545 33.8552C39.5229 34.1406 39.4506 34.4498 39.4421 34.764C39.4408 35.0873 39.507 35.4073 39.6365 35.7035C39.766 35.9997 39.956 36.2656 40.1942 36.4842C40.4324 36.7028 40.7137 36.8691 41.0199 36.9727C41.3262 37.0763 41.6507 37.1148 41.9727 37.0857L46.2445 37.1553Z" fill="white"/>
<path d="M66.8604 23.4692C68.265 23.4692 69.5883 23.3647 70.8768 23.4692C72.2918 23.6033 73.6044 24.2655 74.553 25.3239C75.5017 26.3823 76.0169 27.7592 75.996 29.1804C75.996 34.8452 75.996 40.51 75.996 46.1747C75.996 53.0235 75.996 59.8762 75.996 66.7327C76.0468 67.9426 75.6149 69.1232 74.7952 70.0146C73.9756 70.9061 72.8354 71.4354 71.6255 71.4862C70.4156 71.537 69.2351 71.1051 68.3436 70.2855C67.4521 69.4659 66.9228 68.3257 66.872 67.1158C66.872 66.9068 66.872 66.6863 66.872 66.4773V23.4692H66.8604Z" fill="white"/>
</svg>
