<svg width="88" height="88" viewBox="0 0 88 88" fill="none" xmlns="http://www.w3.org/2000/svg">
<path d="M63.2892 39.9042C63.2892 47.1525 63.2892 54.4008 63.2892 61.6491C63.3068 62.2458 63.2339 62.8417 63.0731 63.4166C62.8912 63.9953 62.5635 64.5174 62.1215 64.9328C61.6795 65.3481 61.138 65.6428 60.5492 65.7884C59.9604 65.934 59.344 65.9257 58.7594 65.7642C58.1747 65.6027 57.6414 65.2935 57.2108 64.8663C55.7866 63.5947 54.4387 62.1831 52.9 61.0514C47.0023 56.5203 39.749 54.11 32.3123 54.21C28.561 54.21 24.797 54.21 21.0457 54.21C17.9651 54.3304 14.9511 53.2927 12.5975 51.3016C10.2438 49.3104 8.72113 46.51 8.32938 43.452C7.73908 40.3062 7.94453 37.0627 8.92704 34.0165C9.8212 31.5902 11.4437 29.4997 13.5722 28.0314C15.7007 26.5631 18.2311 25.7888 20.8168 25.8145C24.9877 25.8145 29.1714 25.8145 33.3296 25.8145C37.6733 25.742 41.9597 24.8114 45.9424 23.0765C49.9252 21.3415 53.5257 18.8364 56.5369 15.7051C57.1858 14.896 58.0773 14.3166 59.0801 14.0519C59.9875 13.8947 60.9205 14.0977 61.6804 14.6178C62.4404 15.1379 62.9674 15.9341 63.1494 16.8368C63.2216 17.2995 63.2556 17.7673 63.2511 18.2356L63.2892 39.9042Z" fill="white"/>
<path d="M18.9094 57.4273H34.347C34.6776 58.6989 35.021 59.8688 35.2626 61.0642C35.8586 64.0738 36.8956 66.979 38.3399 69.6858C38.6503 70.2197 38.8351 70.8173 38.8802 71.4332C38.9254 72.0491 38.8298 72.6672 38.6006 73.2407C38.3715 73.8142 38.0148 74.328 37.5576 74.7432C37.1005 75.1583 36.5548 75.464 35.962 75.6371C35.4368 75.7863 34.8929 75.8591 34.347 75.8532C31.9563 75.8532 29.553 75.8532 27.1496 75.8532C25.6597 75.9101 24.2038 75.3997 23.0756 74.4249C21.9475 73.4502 21.2311 72.0837 21.0712 70.6014C20.3845 66.3541 19.6597 62.1196 18.9603 57.8851C18.9349 57.7452 18.9221 57.5926 18.9094 57.4273Z" fill="white"/>
<path d="M74.9881 37.4118C75.8147 37.4118 76.654 37.4118 77.5314 37.4118C78.1926 37.4317 78.8201 37.7084 79.2806 38.1832C79.7412 38.658 79.9987 39.2936 79.9984 39.9551C80.0104 40.2859 79.9554 40.6157 79.8366 40.9246C79.7179 41.2336 79.5378 41.5153 79.3074 41.7529C79.0769 41.9905 78.8008 42.179 78.4956 42.3071C78.1904 42.4352 77.8624 42.5003 77.5314 42.4983C75.8529 42.4983 74.187 42.4983 72.5212 42.4983C72.1536 42.568 71.7752 42.5558 71.4129 42.4624C71.0506 42.3691 70.7134 42.1969 70.4252 41.9583C70.1371 41.7196 69.9051 41.4204 69.746 41.0818C69.5868 40.7432 69.5042 40.3737 69.5042 39.9996C69.5042 39.6255 69.5868 39.2559 69.746 38.9174C69.9051 38.5788 70.1371 38.2795 70.4252 38.0409C70.7134 37.8023 71.0506 37.6301 71.4129 37.5368C71.7752 37.4434 72.1536 37.4312 72.5212 37.5008C73.3096 37.3991 74.1997 37.4118 74.9881 37.4118Z" fill="white"/>
<path d="M75.9929 55.0111C75.9601 55.4779 75.8071 55.9282 75.5485 56.3182C75.29 56.7082 74.9349 57.0246 74.5178 57.2365C74.1076 57.4775 73.6313 57.5816 73.1579 57.5336C72.6846 57.4856 72.2389 57.288 71.8855 56.9694C70.4994 55.6978 69.1642 54.4262 67.9053 52.9892C67.5257 52.5184 67.3323 51.9245 67.3618 51.3204C67.3914 50.7163 67.6418 50.1441 68.0655 49.7126C68.4892 49.281 69.0567 49.0201 69.6602 48.9795C70.2636 48.9389 70.861 49.1214 71.3387 49.4923C72.7375 50.7639 74.0727 52.1245 75.357 53.5233C75.6522 53.9794 75.8672 54.4826 75.9929 55.0111Z" fill="white"/>
<path d="M75.891 25.1533C75.6978 25.6608 75.4369 26.1399 75.1153 26.5775C74.009 27.8492 72.8264 28.9428 71.6438 30.0745C71.4362 30.3877 71.1618 30.6509 70.8404 30.8454C70.5189 31.0398 70.1584 31.1606 69.7847 31.1992C69.411 31.2377 69.0334 31.1929 68.6791 31.0681C68.3247 30.9433 68.0024 30.7416 67.7354 30.4774C67.4683 30.2131 67.2631 29.8931 67.1344 29.5401C67.0058 29.1871 66.957 28.81 66.9914 28.4359C67.0259 28.0618 67.1428 27.7 67.3338 27.3765C67.5248 27.053 67.7851 26.7758 68.0959 26.5648C69.2658 25.2932 70.4739 24.1487 71.6946 22.9788C72.0445 22.6204 72.5002 22.3837 72.9946 22.3036C73.4891 22.2235 73.9962 22.3042 74.4414 22.5338C74.929 22.761 75.332 23.1369 75.5925 23.6076C75.853 24.0783 75.9575 24.6195 75.891 25.1533Z" fill="white"/>
</svg>
